<svg xmlns="http://www.w3.org/2000/svg" viewBox="0 0 256 128"><defs><style>.cls-1{opacity:0.5;}.cls-2{fill:#fff200;}</style></defs><g id="Layer_36" data-name="Layer 36"><g class="cls-1"><path d="M103.92,64.81a20.35,20.35,0,0,1-1.31,7.57,15.11,15.11,0,0,1-3.75,5.54,16.16,16.16,0,0,1-5.81,3.43,24.82,24.82,0,0,1-15.06,0,16.16,16.16,0,0,1-5.81-3.43,15.57,15.57,0,0,1-3.79-5.54A19.74,19.74,0,0,1,67,64.81a19.64,19.64,0,0,1,1.31-7.39,15.49,15.49,0,0,1,3.71-5.5,15.67,15.67,0,0,1,5.81-3.43,25.62,25.62,0,0,1,15.18,0,16,16,0,0,1,5.81,3.36,14.79,14.79,0,0,1,3.75,5.5A20.12,20.12,0,0,1,103.92,64.81Zm-10.64,0a8,8,0,0,0-2.15-5.93,7.86,7.86,0,0,0-5.77-2.12,7.43,7.43,0,0,0-5.7,2.12,8.35,8.35,0,0,0-2,5.93,8.82,8.82,0,0,0,1.94,6.11,7.31,7.31,0,0,0,5.74,2.16A7.82,7.82,0,0,0,91.22,71,8.48,8.48,0,0,0,93.28,64.81Z"/><path d="M136.88,82.52v-20a8,8,0,0,0-.52-3.23,4.69,4.69,0,0,0-1.24-1.74,3.12,3.12,0,0,0-1.52-.69,9.4,9.4,0,0,0-1.36-.12,7.76,7.76,0,0,0-1.68.31,5.67,5.67,0,0,0-2.44,1.47,9.89,9.89,0,0,0-2.2,3.39,15.5,15.5,0,0,0-1,6V82.52H114.32V59.25a39.87,39.87,0,0,0-.48-6.07,19.89,19.89,0,0,0-1.28-4.9H123.2a15,15,0,0,1,.68,1.84c.13.48.28,1.17.44,2.08a16.62,16.62,0,0,1,5.49-3.68,15.8,15.8,0,0,1,5.95-1.2,11.69,11.69,0,0,1,4.67.93,11.38,11.38,0,0,1,3.72,2.61A12.18,12.18,0,0,1,146.62,55a15.89,15.89,0,0,1,.9,5.49v22Z"/><path d="M191,57a9.13,9.13,0,0,1-1.42,5,12,12,0,0,1-4,3.8,22.19,22.19,0,0,1-6.23,2.44,34.51,34.51,0,0,1-8.15.88c-.28,0-.6,0-1,0s-.79,0-1.29,0a7.39,7.39,0,0,0,2.4,4.76,7.59,7.59,0,0,0,5.18,1.72,23.67,23.67,0,0,0,11.78-3.6v8.4a23.48,23.48,0,0,1-5.8,2.52,24.18,24.18,0,0,1-6.28.76,20.71,20.71,0,0,1-7.24-1.2,14.7,14.7,0,0,1-5.48-3.48A15.53,15.53,0,0,1,160,73.44a20.06,20.06,0,0,1-1.2-7.16,22.11,22.11,0,0,1,1.4-8A18.61,18.61,0,0,1,164.12,52a17.25,17.25,0,0,1,6-4.08,20.27,20.27,0,0,1,7.76-1.44q5.93,0,9.48,2.88A9.39,9.39,0,0,1,191,57Zm-10.64.8a2.79,2.79,0,0,0-1.1-2.2,4.16,4.16,0,0,0-2.76-.92,6.35,6.35,0,0,0-4.57,1.88,9,9,0,0,0-2.45,5.16,6.41,6.41,0,0,0,1.27.16h1.18Q180.32,61.88,180.32,57.8Z"/></g><path class="cls-2" d="M101.92,62.81a20.35,20.35,0,0,1-1.31,7.57,15.11,15.11,0,0,1-3.75,5.54,16.16,16.16,0,0,1-5.81,3.43,24.82,24.82,0,0,1-15.06,0,16.16,16.16,0,0,1-5.81-3.43,15.57,15.57,0,0,1-3.79-5.54A19.74,19.74,0,0,1,65,62.81a19.64,19.64,0,0,1,1.31-7.39,15.49,15.49,0,0,1,3.71-5.5,15.67,15.67,0,0,1,5.81-3.43,25.62,25.62,0,0,1,15.18,0,16,16,0,0,1,5.81,3.36,14.79,14.79,0,0,1,3.75,5.5A20.12,20.12,0,0,1,101.92,62.81Zm-10.64,0a8,8,0,0,0-2.15-5.93,7.86,7.86,0,0,0-5.77-2.12,7.43,7.43,0,0,0-5.7,2.12,8.35,8.35,0,0,0-2,5.93,8.82,8.82,0,0,0,1.94,6.11,7.31,7.31,0,0,0,5.74,2.16A7.82,7.82,0,0,0,89.22,69,8.48,8.48,0,0,0,91.28,62.81Z"/><path class="cls-2" d="M134.88,80.52v-20a8,8,0,0,0-.52-3.23,4.69,4.69,0,0,0-1.24-1.74,3.12,3.12,0,0,0-1.52-.69,9.4,9.4,0,0,0-1.36-.12,7.76,7.76,0,0,0-1.68.31,5.67,5.67,0,0,0-2.44,1.47,9.89,9.89,0,0,0-2.2,3.39,15.5,15.5,0,0,0-1,6V80.52H112.32V57.25a39.87,39.87,0,0,0-.48-6.07,19.89,19.89,0,0,0-1.28-4.9H121.2a15,15,0,0,1,.68,1.84c.13.48.28,1.17.44,2.08a16.62,16.62,0,0,1,5.49-3.68,15.8,15.8,0,0,1,5.95-1.2,11.69,11.69,0,0,1,4.67.93,11.38,11.38,0,0,1,3.72,2.61A12.18,12.18,0,0,1,144.62,53a15.89,15.89,0,0,1,.9,5.49v22Z"/><path class="cls-2" d="M189,55a9.13,9.13,0,0,1-1.42,5,12,12,0,0,1-4,3.8,22.19,22.19,0,0,1-6.23,2.44,34.51,34.51,0,0,1-8.15.88c-.28,0-.6,0-1,0s-.79,0-1.29,0a7.39,7.39,0,0,0,2.4,4.76,7.59,7.59,0,0,0,5.18,1.72,23.67,23.67,0,0,0,11.78-3.6v8.4a23.48,23.48,0,0,1-5.8,2.52,24.18,24.18,0,0,1-6.28.76,20.71,20.71,0,0,1-7.24-1.2,14.7,14.7,0,0,1-5.48-3.48A15.53,15.53,0,0,1,158,71.44a20.06,20.06,0,0,1-1.2-7.16,22.11,22.11,0,0,1,1.4-8A18.61,18.61,0,0,1,162.12,50a17.25,17.25,0,0,1,6-4.08,20.27,20.27,0,0,1,7.76-1.44q5.93,0,9.48,2.88A9.39,9.39,0,0,1,189,55Zm-10.64.8a2.79,2.79,0,0,0-1.1-2.2,4.16,4.16,0,0,0-2.76-.92,6.35,6.35,0,0,0-4.57,1.88,9,9,0,0,0-2.45,5.16,6.41,6.41,0,0,0,1.27.16h1.18Q178.32,59.88,178.32,55.8Z"/></g></svg>