<svg xmlns="http://www.w3.org/2000/svg" viewBox="0 0 256 128"><defs><style>.cls-1{fill:#fff200;}.cls-2{fill:#323232;}</style></defs><g id="_3_Hot_air_ballons" data-name="3 Hot air ballons"><path class="cls-1" d="M61.59,45.73A8.37,8.37,0,0,1,61,48.9a6.87,6.87,0,0,1-1.58,2.41A7.1,7.1,0,0,1,57,52.85a9.27,9.27,0,0,1-3.25.55,9,9,0,0,1-3.39-.62A7.15,7.15,0,0,1,47.72,51,8.15,8.15,0,0,1,46,48.28a10,10,0,0,1-.6-3.55,12.72,12.72,0,0,1,.72-4.18,22.05,22.05,0,0,1,1.88-4,29.73,29.73,0,0,1,2.61-3.7,35.86,35.86,0,0,1,2.92-3.15h5.74a37.11,37.11,0,0,0-7.64,9.83q.53-.3,1-.51a5.74,5.74,0,0,1,.82-.32,4,4,0,0,1,.78-.17,6.25,6.25,0,0,1,.9-.05,6.18,6.18,0,0,1,2.61.53,5.72,5.72,0,0,1,2,1.51,7.23,7.23,0,0,1,1.33,2.32A8.62,8.62,0,0,1,61.59,45.73Zm-4.52.1a3.34,3.34,0,0,0-.81-2.37,2.8,2.8,0,0,0-2.15-.88A4.49,4.49,0,0,0,51,43.92c-.07.34-.12.59-.14.76a6.06,6.06,0,0,0,0,.67A3.81,3.81,0,0,0,51.7,48a3.11,3.11,0,0,0,2.41,1,2.8,2.8,0,0,0,2.15-.87A3.29,3.29,0,0,0,57.07,45.83Z"/><path class="cls-2" d="M79.08,36.57a1.66,1.66,0,0,1-.69,1.34,2.78,2.78,0,0,1-3.33,0,1.83,1.83,0,0,1-.72-1.38A1.62,1.62,0,0,1,75,35.15a2.64,2.64,0,0,1,1.74-.56,2.67,2.67,0,0,1,.88.15,2.28,2.28,0,0,1,.75.42,2.21,2.21,0,0,1,.51.63A1.68,1.68,0,0,1,79.08,36.57ZM74.58,53.4V40.2h4V53.4Z"/><path class="cls-2" d="M91.24,53.15a9.16,9.16,0,0,1-2.14.25,7,7,0,0,1-2.64-.48,6.47,6.47,0,0,1-2.09-1.3,5.6,5.6,0,0,1-1.36-2A6.89,6.89,0,0,1,82.53,47,8.39,8.39,0,0,1,83,44.26a5.67,5.67,0,0,1,1.32-2.16,6,6,0,0,1,2.19-1.4,8.37,8.37,0,0,1,3-.5,7,7,0,0,1,2.29.31,8.4,8.4,0,0,1,1.49.68l-.69,3.45-.77-.38a5.1,5.1,0,0,0-.6-.27,2.91,2.91,0,0,0-.63-.15,6.5,6.5,0,0,0-.82,0,3.13,3.13,0,0,0-2.31.81,3,3,0,0,0-.81,2.22,2.94,2.94,0,0,0,.84,2.22,3.36,3.36,0,0,0,2.43.81,6.66,6.66,0,0,0,1.56-.19,8.53,8.53,0,0,0,1.59-.57l.27,3.27A10.41,10.41,0,0,1,91.24,53.15Z"/><path class="cls-2" d="M108,43.83a3.37,3.37,0,0,1-.54,1.86,4.37,4.37,0,0,1-1.5,1.42,8.34,8.34,0,0,1-2.34.92,13,13,0,0,1-3.06.33l-.36,0h-.48a2.71,2.71,0,0,0,.9,1.78,2.84,2.84,0,0,0,1.94.65A8.89,8.89,0,0,0,107,49.41v3.15a8.66,8.66,0,0,1-2.18.94,9.06,9.06,0,0,1-2.35.29,7.8,7.8,0,0,1-2.72-.45A5.51,5.51,0,0,1,97.71,52a5.82,5.82,0,0,1-1.29-2A7.49,7.49,0,0,1,96,47.31a8.36,8.36,0,0,1,.52-3A7,7,0,0,1,98,41.94a6.5,6.5,0,0,1,2.27-1.53,7.62,7.62,0,0,1,2.91-.54A5.47,5.47,0,0,1,106.69,41,3.52,3.52,0,0,1,108,43.83Zm-4,.3a1.07,1.07,0,0,0-.41-.83,1.57,1.57,0,0,0-1-.34,2.36,2.36,0,0,0-1.71.7A3.37,3.37,0,0,0,100,45.6a2.49,2.49,0,0,0,.47.06h.45C103,45.66,104,45.15,104,44.13Z"/><path class="cls-2" d="M119.44,53.15a9.16,9.16,0,0,1-2.14.25,7,7,0,0,1-2.64-.48,6.47,6.47,0,0,1-2.09-1.3,5.6,5.6,0,0,1-1.36-2,6.89,6.89,0,0,1-.48-2.61,8.39,8.39,0,0,1,.43-2.75,5.67,5.67,0,0,1,1.32-2.16,6,6,0,0,1,2.19-1.4,8.37,8.37,0,0,1,3-.5,7,7,0,0,1,2.29.31,8.4,8.4,0,0,1,1.49.68l-.69,3.45-.77-.38a5.1,5.1,0,0,0-.6-.27,2.91,2.91,0,0,0-.63-.15,6.5,6.5,0,0,0-.82,0,3.13,3.13,0,0,0-2.31.81,3,3,0,0,0-.81,2.22,2.94,2.94,0,0,0,.84,2.22,3.36,3.36,0,0,0,2.43.81,6.66,6.66,0,0,0,1.56-.19,8.53,8.53,0,0,0,1.59-.57l.27,3.27A10.41,10.41,0,0,1,119.44,53.15Z"/><path class="cls-2" d="M133.8,43.89l-.66-.12a4.39,4.39,0,0,0-.54,0,3.06,3.06,0,0,0-2.6,1.17,5.72,5.72,0,0,0-.88,3.48v5h-4V44.73c0-.49,0-.91,0-1.28s0-.7-.07-1a9.32,9.32,0,0,0-.17-.92c-.07-.31-.16-.66-.28-1.05h3.79c.06.25.11.46.16.63a2.52,2.52,0,0,1,.11.5c0,.15,0,.32.06.49a3.77,3.77,0,0,1,0,.63,6.55,6.55,0,0,1,1.7-1.95,3.28,3.28,0,0,1,1.91-.57,2.8,2.8,0,0,1,.7.07,5.81,5.81,0,0,1,.8.3Z"/><path class="cls-2" d="M147.09,43.83a3.37,3.37,0,0,1-.54,1.86,4.37,4.37,0,0,1-1.5,1.42,8.34,8.34,0,0,1-2.34.92,13,13,0,0,1-3.06.33l-.36,0h-.48a2.71,2.71,0,0,0,.9,1.78,2.84,2.84,0,0,0,1.94.65,8.89,8.89,0,0,0,4.42-1.35v3.15a8.66,8.66,0,0,1-2.18.94,9.06,9.06,0,0,1-2.35.29,7.8,7.8,0,0,1-2.72-.45,5.51,5.51,0,0,1-2-1.31,5.82,5.82,0,0,1-1.29-2,7.49,7.49,0,0,1-.45-2.68,8.36,8.36,0,0,1,.52-3A7,7,0,0,1,137,41.94a6.5,6.5,0,0,1,2.27-1.53,7.62,7.62,0,0,1,2.91-.54A5.47,5.47,0,0,1,145.75,41,3.52,3.52,0,0,1,147.09,43.83Zm-4,.3a1.07,1.07,0,0,0-.41-.83,1.57,1.57,0,0,0-1-.34,2.36,2.36,0,0,0-1.71.7A3.37,3.37,0,0,0,139,45.6a2.4,2.4,0,0,0,.47.06h.45C142,45.66,143.1,45.15,143.1,44.13Z"/><path class="cls-2" d="M159.6,53.4c0-.14,0-.31,0-.51s0-.35,0-.57,0-.45-.05-.69a4.68,4.68,0,0,1-2,1.54,6.3,6.3,0,0,1-2.55.53,4.77,4.77,0,0,1-3.84-1.62,7,7,0,0,1-1.36-4.62,7.11,7.11,0,0,1,2.2-5.6,9.14,9.14,0,0,1,6.28-2c.45,0,.85,0,1.22,0s.73,0,1.09.1.74.12,1.13.2.81.19,1.28.33v8.52c0,.46,0,.94,0,1.45s0,1,.09,1.4.08,1,.12,1.47ZM159,43.62a6.17,6.17,0,0,0-.95-.15l-.79,0a3.21,3.21,0,0,0-2.57,1.06,4.4,4.4,0,0,0-.91,3,2.91,2.91,0,0,0,.55,1.92,1.89,1.89,0,0,0,1.55.66,2.78,2.78,0,0,0,1.21-.27,3,3,0,0,0,1-.77,3.54,3.54,0,0,0,.67-1.17,4.23,4.23,0,0,0,.25-1.51Z"/><path class="cls-2" d="M184.5,53.4V46.87a4.29,4.29,0,0,0-.51-2.45,1.6,1.6,0,0,0-1.37-.68,2,2,0,0,0-.89.21,2.23,2.23,0,0,0-.82.7,3.71,3.71,0,0,0-.6,1.31,7.93,7.93,0,0,0-.22,2V53.4h-4V46.87a4.68,4.68,0,0,0-.47-2.38,1.67,1.67,0,0,0-1.54-.75,2.16,2.16,0,0,0-1.77,1,5.54,5.54,0,0,0-.75,3.26V53.4h-4V45.11c0-.49,0-.93,0-1.33s-.06-.77-.11-1.12a8.62,8.62,0,0,0-.21-1c-.09-.33-.19-.68-.31-1h4l.22.7a6.3,6.3,0,0,1,.17.67,9.26,9.26,0,0,1,2.07-1.28,6.78,6.78,0,0,1,2.74-.49,4.67,4.67,0,0,1,2,.43,3,3,0,0,1,1.35,1.21,4.37,4.37,0,0,1,2-1.22,8.31,8.31,0,0,1,2.59-.42,4.25,4.25,0,0,1,3.24,1.19,4.84,4.84,0,0,1,1.14,3.47V53.4Z"/><path class="cls-2" d="M54.58,89.15a9.25,9.25,0,0,1-2.15.25,7,7,0,0,1-2.64-.48,6.43,6.43,0,0,1-2.08-1.3,5.62,5.62,0,0,1-1.37-2A6.89,6.89,0,0,1,45.86,83a8.39,8.39,0,0,1,.44-2.75,5.67,5.67,0,0,1,1.32-2.16,6,6,0,0,1,2.19-1.4,8.32,8.32,0,0,1,3-.5,7,7,0,0,1,2.3.31,8.27,8.27,0,0,1,1.48.68l-.69,3.45-.76-.38a5.1,5.1,0,0,0-.6-.27,2.91,2.91,0,0,0-.63-.15,6.67,6.67,0,0,0-.83,0,3.13,3.13,0,0,0-2.31.81A3,3,0,0,0,50,82.83a2.94,2.94,0,0,0,.84,2.22,3.36,3.36,0,0,0,2.43.81,6.66,6.66,0,0,0,1.56-.19,8.53,8.53,0,0,0,1.59-.57l.27,3.27A10.34,10.34,0,0,1,54.58,89.15Z"/><path class="cls-2" d="M69.14,89.4q0-.21,0-.51c0-.16,0-.35,0-.57s0-.45,0-.69a4.71,4.71,0,0,1-2,1.54,6.31,6.31,0,0,1-2.56.53,4.74,4.74,0,0,1-3.83-1.62,7,7,0,0,1-1.37-4.62,7.12,7.12,0,0,1,2.21-5.6,9.12,9.12,0,0,1,6.28-2c.44,0,.85,0,1.21,0s.73,0,1.1.1.74.12,1.13.2.81.19,1.27.33v8.52c0,.46,0,.94,0,1.45s0,1,.09,1.4.08,1,.12,1.47Zm-.63-9.78a6.06,6.06,0,0,0-.94-.15l-.8,0a3.19,3.19,0,0,0-2.56,1.06,4.41,4.41,0,0,0-.92,3,3,3,0,0,0,.55,1.92A1.93,1.93,0,0,0,65.4,86a2.71,2.71,0,0,0,1.2-.27,3.09,3.09,0,0,0,1-.77,3.73,3.73,0,0,0,.67-1.17,4.47,4.47,0,0,0,.24-1.51Z"/><path class="cls-2" d="M85.43,89.4V81.91a3.05,3.05,0,0,0-.19-1.22,1.68,1.68,0,0,0-.47-.65,1.23,1.23,0,0,0-.57-.26,3.44,3.44,0,0,0-.51,0,2.72,2.72,0,0,0-.63.11,2.18,2.18,0,0,0-.91.55,3.83,3.83,0,0,0-.83,1.27A5.83,5.83,0,0,0,81,83.93V89.4H77V80.67a15,15,0,0,0-.18-2.28,7.33,7.33,0,0,0-.48-1.83h4a5.91,5.91,0,0,1,.26.69c0,.18.1.44.16.78a6.32,6.32,0,0,1,2.06-1.38A5.92,5.92,0,0,1,85,76.2a4.24,4.24,0,0,1,1.75.35,4.19,4.19,0,0,1,1.4,1,4.49,4.49,0,0,1,.92,1.55,5.86,5.86,0,0,1,.34,2.06V89.4Z"/><path class="cls-2" d="M104,89.4q0-.18-.06-.42t-.06-.48q0-.27-.06-.66a5.5,5.5,0,0,1-2,1.48,6.14,6.14,0,0,1-2.37.44,5.89,5.89,0,0,1-2.39-.47A5.19,5.19,0,0,1,95.25,88a5.72,5.72,0,0,1-1.18-2,7.68,7.68,0,0,1-.42-2.61,8.92,8.92,0,0,1,.5-3A7.31,7.31,0,0,1,95.53,78a6.14,6.14,0,0,1,2.11-1.56,6.49,6.49,0,0,1,2.7-.55,9.33,9.33,0,0,1,1.32.09,7.72,7.72,0,0,1,1.47.39V68.49h4V84.84c0,.34,0,.77,0,1.29s.06,1,.1,1.5.09,1.15.15,1.77Zm-.87-9.63a4.19,4.19,0,0,0-1.11-.3,9.2,9.2,0,0,0-1.07-.06,3,3,0,0,0-2.42,1,4.24,4.24,0,0,0-.89,2.84,3,3,0,0,0,.63,2,2.11,2.11,0,0,0,1.71.74,3.53,3.53,0,0,0,1.23-.21,2.28,2.28,0,0,0,1-.72,3.74,3.74,0,0,0,.67-1.34,7,7,0,0,0,.25-2Z"/><path class="cls-2" d="M123.14,93.71a6.58,6.58,0,0,1-1.31,2.76,4.7,4.7,0,0,1-2.28,1.45,11.49,11.49,0,0,1-3.31.42,9.65,9.65,0,0,1-1.93-.2,20.08,20.08,0,0,1-2-.52v-3l1.88.13c.59,0,1.18,0,1.76,0a4.33,4.33,0,0,0,1.61-.28,2.45,2.45,0,0,0,1.11-.91,4.35,4.35,0,0,0,.64-1.67,14,14,0,0,0,.19-2.54V87.78a5.15,5.15,0,0,1-3.75,1.62A4.24,4.24,0,0,1,114,89a4,4,0,0,1-1.43-1,5.1,5.1,0,0,1-1-1.58,5.78,5.78,0,0,1-.36-2.1c0-.7,0-1.38,0-2s0-1.29,0-1.94,0-1.31,0-2,0-1.42-.11-2.2h4c.06.79.1,1.53.11,2.21s0,1.32,0,1.92,0,1.18,0,1.73,0,1.1,0,1.64a2.47,2.47,0,0,0,.45,1.65,1.59,1.59,0,0,0,1.27.51,2.45,2.45,0,0,0,1.84-.83,3.18,3.18,0,0,0,.76-2.23V76.2h4V89.4A18.62,18.62,0,0,1,123.14,93.71Z"/><path class="cls-2" d="M147,85.74a3.77,3.77,0,0,1-1.27,3,5.26,5.26,0,0,1-3.57,1.11,15,15,0,0,1-3.05-.3,9.09,9.09,0,0,1-2.4-.81l.51-3.06A10.24,10.24,0,0,0,141.77,87a1.32,1.32,0,0,0,.95-.29.87.87,0,0,0,.28-.64,1.16,1.16,0,0,0-.22-.74,3.49,3.49,0,0,0-1.1-.7,17.82,17.82,0,0,1-2.11-1.08,7,7,0,0,1-1.44-1.13,3.79,3.79,0,0,1-.81-1.24,4.14,4.14,0,0,1-.26-1.5,3.38,3.38,0,0,1,1.45-2.93,6.39,6.39,0,0,1,3.79-1,11.7,11.7,0,0,1,2.24.19,10.48,10.48,0,0,1,2.24.77l-.48,3a7.24,7.24,0,0,0-2.06-.83,9.31,9.31,0,0,0-2-.22,1.35,1.35,0,0,0-.95.25.93.93,0,0,0-.26.68,1,1,0,0,0,.41.82,8.68,8.68,0,0,0,1.6.83,18.77,18.77,0,0,1,1.82,1,6.53,6.53,0,0,1,1.23,1,3.27,3.27,0,0,1,.68,1.11A4.14,4.14,0,0,1,147,85.74Z"/><path class="cls-2" d="M151.49,89.4V79.05h-2.64V76.2h2.64V72.87h3.93V76.2h3.39v2.85h-3.39V89.4Z"/><path class="cls-2" d="M165.86,72.57a1.66,1.66,0,0,1-.69,1.34,2.78,2.78,0,0,1-3.33,0,1.83,1.83,0,0,1-.72-1.38,1.62,1.62,0,0,1,.66-1.37,2.64,2.64,0,0,1,1.74-.56,2.73,2.73,0,0,1,.89.15,2.28,2.28,0,0,1,.75.42,2.21,2.21,0,0,1,.51.63A1.66,1.66,0,0,1,165.86,72.57Zm-4.5,16.83V76.2h4V89.4Z"/><path class="cls-2" d="M178,89.15a9.31,9.31,0,0,1-2.15.25,7,7,0,0,1-2.64-.48,6.43,6.43,0,0,1-2.08-1.3,5.62,5.62,0,0,1-1.37-2,6.89,6.89,0,0,1-.48-2.61,8.39,8.39,0,0,1,.44-2.75,5.55,5.55,0,0,1,1.32-2.16,6,6,0,0,1,2.18-1.4,8.37,8.37,0,0,1,3.05-.5,7,7,0,0,1,2.29.31,8.4,8.4,0,0,1,1.49.68l-.69,3.45-.77-.38A5,5,0,0,0,178,80a3.22,3.22,0,0,0-.63-.15,6.67,6.67,0,0,0-.83,0,3.13,3.13,0,0,0-2.31.81,3,3,0,0,0-.81,2.22,2.94,2.94,0,0,0,.84,2.22,3.36,3.36,0,0,0,2.43.81,6.66,6.66,0,0,0,1.56-.19,8.53,8.53,0,0,0,1.59-.57l.27,3.27A10.34,10.34,0,0,1,178,89.15Z"/><path class="cls-2" d="M191.24,81.6l6.39,7.8h-5.28l-5-6.51V89.4h-4V68.49h4V80.55l4.86-4.35H198Z"/><path class="cls-2" d="M210.56,85.74a3.77,3.77,0,0,1-1.27,3,5.27,5.27,0,0,1-3.58,1.11,15,15,0,0,1-3-.3,9.09,9.09,0,0,1-2.4-.81l.51-3.06A10.24,10.24,0,0,0,205.34,87a1.33,1.33,0,0,0,.95-.29.91.91,0,0,0,.28-.64,1.11,1.11,0,0,0-.23-.74,3.28,3.28,0,0,0-1.09-.7,18,18,0,0,1-2.12-1.08,6.67,6.67,0,0,1-1.43-1.13,3.82,3.82,0,0,1-.82-1.24,4.14,4.14,0,0,1-.25-1.5,3.38,3.38,0,0,1,1.45-2.93,6.39,6.39,0,0,1,3.79-1,11.59,11.59,0,0,1,2.23.19,10.36,10.36,0,0,1,2.25.77l-.48,3a7.18,7.18,0,0,0-2.07-.83,9.15,9.15,0,0,0-2-.22,1.35,1.35,0,0,0-1,.25.93.93,0,0,0-.26.68,1,1,0,0,0,.41.82,8.68,8.68,0,0,0,1.6.83,18.77,18.77,0,0,1,1.82,1,6.53,6.53,0,0,1,1.23,1,3.27,3.27,0,0,1,.68,1.11A4.14,4.14,0,0,1,210.56,85.74Z"/></g></svg>