<svg xmlns="http://www.w3.org/2000/svg" viewBox="0 0 256 128"><defs><style>.cls-1{fill:#ff0;}.cls-2{fill:#323232;}</style></defs><g id="_3_Hot_air_ballons" data-name="3 Hot air ballons"><path class="cls-1" d="M67.75,75.9H63.2l.27-10a6.52,6.52,0,0,1-1.94,1.19,7,7,0,0,1-2.28.34,7.23,7.23,0,0,1-2.84-.55,6.3,6.3,0,0,1-2.19-1.54,7,7,0,0,1-1.41-2.4,9.3,9.3,0,0,1-.49-3.13,9.08,9.08,0,0,1,.59-3.38,7.26,7.26,0,0,1,1.68-2.57,7.47,7.47,0,0,1,2.67-1.62,10.61,10.61,0,0,1,3.52-.56,7.44,7.44,0,0,1,5.51,2,7.09,7.09,0,0,1,1.87,5.47ZM63.43,58.59a2.65,2.65,0,0,0-.22-1.11,2.87,2.87,0,0,0-.61-.86,2.76,2.76,0,0,0-.93-.58,3.22,3.22,0,0,0-1.16-.2,3.13,3.13,0,0,0-2.48,1,4.26,4.26,0,0,0-.92,2.89,3.76,3.76,0,0,0,.8,2.55,2.8,2.8,0,0,0,2.23.92,3.07,3.07,0,0,0,2.31-.92,3.77,3.77,0,0,0,.95-2.55Z"/><path class="cls-2" d="M94.94,68.34a9,9,0,0,1-.52,3.11,6.54,6.54,0,0,1-3.8,3.9,7.84,7.84,0,0,1-3,.55,15.33,15.33,0,0,1-3-.32,13.45,13.45,0,0,1-2.81-.85V55.32h4v8.91a4.66,4.66,0,0,1,1.71-1.15,5.84,5.84,0,0,1,2.18-.38,5.55,5.55,0,0,1,2.14.4,4.44,4.44,0,0,1,1.67,1.14A5.19,5.19,0,0,1,94.56,66,6.8,6.8,0,0,1,94.94,68.34Zm-4,.72a2.61,2.61,0,0,0-.61-1.83,2.18,2.18,0,0,0-1.69-.66,2.87,2.87,0,0,0-1.21.24,2.66,2.66,0,0,0-.92.67,2.91,2.91,0,0,0-.57,1,3.33,3.33,0,0,0-.19,1.14v2.28a3.56,3.56,0,0,0,.94.35,5.35,5.35,0,0,0,1.09.09,3.12,3.12,0,0,0,2.32-.86A3.25,3.25,0,0,0,91,69.06Z"/><path class="cls-2" d="M107.66,75.54a5.91,5.91,0,0,1-.26-.69c-.05-.18-.1-.44-.16-.78A5.87,5.87,0,0,1,103,75.9a4.43,4.43,0,0,1-3.23-1.38A4.29,4.29,0,0,1,98.84,73a5.9,5.9,0,0,1-.33-2q0-1.23.06-2.28t.09-2c0-.65,0-1.29,0-1.93s-.07-1.32-.15-2h4c.06.65.09,1.28.1,1.89s0,1.21,0,1.81,0,1.2-.06,1.82,0,1.27,0,2a3.4,3.4,0,0,0,.18,1.23,1.47,1.47,0,0,0,.49.65,1.5,1.5,0,0,0,.61.24,3.87,3.87,0,0,0,.53,0,3,3,0,0,0,.64-.12,2.18,2.18,0,0,0,.91-.55,3.69,3.69,0,0,0,.79-1.27,6.05,6.05,0,0,0,.35-2.26V62.7h4v8.72a15,15,0,0,0,.18,2.28,7.43,7.43,0,0,0,.48,1.84Z"/><path class="cls-2" d="M116.9,75.9V65.55h-2.64V62.7h2.64V59.37h3.93V62.7h3.39v2.85h-3.39V75.9Z"/><path class="cls-2" d="M137.18,66.33a3.37,3.37,0,0,1-.54,1.86,4.37,4.37,0,0,1-1.5,1.42,8.34,8.34,0,0,1-2.34.92,13,13,0,0,1-3.06.33l-.36,0h-.48a2.71,2.71,0,0,0,.9,1.78,2.84,2.84,0,0,0,1.94.65,8.89,8.89,0,0,0,4.42-1.35v3.15A8.66,8.66,0,0,1,134,76a9.06,9.06,0,0,1-2.35.29,7.8,7.8,0,0,1-2.72-.45,5.51,5.51,0,0,1-2-1.31,5.82,5.82,0,0,1-1.29-2,7.49,7.49,0,0,1-.45-2.68,8.36,8.36,0,0,1,.52-3,7,7,0,0,1,1.47-2.35,6.5,6.5,0,0,1,2.27-1.53,7.62,7.62,0,0,1,2.91-.54,5.47,5.47,0,0,1,3.55,1.08A3.52,3.52,0,0,1,137.18,66.33Zm-4,.3a1,1,0,0,0-.42-.83,1.52,1.52,0,0,0-1-.34,2.36,2.36,0,0,0-1.71.7,3.31,3.31,0,0,0-.92,1.94,2.4,2.4,0,0,0,.47.06H130C132.13,68.16,133.19,67.65,133.19,66.63Z"/><path class="cls-2" d="M149.48,66.39l-.66-.12a4.39,4.39,0,0,0-.54,0,3.06,3.06,0,0,0-2.6,1.17,5.72,5.72,0,0,0-.88,3.48v5h-4V67.23c0-.49,0-.91,0-1.28s0-.7-.07-1a9.32,9.32,0,0,0-.17-.92c-.07-.31-.16-.66-.28-1h3.78c.07.25.12.46.17.63a2.52,2.52,0,0,1,.11.5c0,.15,0,.31.06.49a5.53,5.53,0,0,1,0,.63,6.83,6.83,0,0,1,1.71-1.95A3.28,3.28,0,0,1,148,62.7a2.8,2.8,0,0,1,.7.07,7,7,0,0,1,.8.29Z"/><path class="cls-2" d="M161.6,75.9l0-16.29c-.16-.18-.31-.33-.44-.45a4.43,4.43,0,0,0-.45-.36,2.57,2.57,0,0,0-.57-.3,2.23,2.23,0,0,0-.79-.12,3,3,0,0,0-1.14.19,1.81,1.81,0,0,0-.81.68,3.5,3.5,0,0,0-.5,1.3,11.43,11.43,0,0,0-.16,2.15h3.12v2.88h-3.06V75.9h-4V65.55h-2.52V62.7h2.46a15,15,0,0,1,.42-4,5.91,5.91,0,0,1,1.11-2.28,3.25,3.25,0,0,1,1.6-1,7.33,7.33,0,0,1,2-.25,6.56,6.56,0,0,1,1.86.24,10.4,10.4,0,0,1,1.92.84l0-.93h3.87V75.9Z"/><path class="cls-2" d="M175.43,59.07a1.66,1.66,0,0,1-.69,1.34,2.78,2.78,0,0,1-3.33,0,1.83,1.83,0,0,1-.72-1.38,1.62,1.62,0,0,1,.66-1.37,2.64,2.64,0,0,1,1.74-.56,2.67,2.67,0,0,1,.88.15,2.28,2.28,0,0,1,.75.42,2.12,2.12,0,0,1,.51.64A1.61,1.61,0,0,1,175.43,59.07Zm-4.5,16.83V62.7h4V75.9Z"/><path class="cls-2" d="M190.91,66.33a3.37,3.37,0,0,1-.54,1.86,4.46,4.46,0,0,1-1.5,1.42,8.34,8.34,0,0,1-2.34.92,13,13,0,0,1-3.06.33l-.36,0h-.48a2.75,2.75,0,0,0,.89,1.78,2.89,2.89,0,0,0,1.95.65,8.92,8.92,0,0,0,4.42-1.35v3.15a8.81,8.81,0,0,1-2.18.94,9.11,9.11,0,0,1-2.35.29,7.76,7.76,0,0,1-2.72-.45,5.43,5.43,0,0,1-2-1.31,5.68,5.68,0,0,1-1.29-2,7.28,7.28,0,0,1-.46-2.68,8.36,8.36,0,0,1,.53-3,7,7,0,0,1,1.47-2.35,6.41,6.41,0,0,1,2.27-1.53,7.56,7.56,0,0,1,2.9-.54,5.5,5.5,0,0,1,3.56,1.08A3.52,3.52,0,0,1,190.91,66.33Zm-4,.3a1,1,0,0,0-.42-.83,1.54,1.54,0,0,0-1-.34,2.36,2.36,0,0,0-1.71.7,3.31,3.31,0,0,0-.92,1.94,2.4,2.4,0,0,0,.47.06h.45C185.86,68.16,186.92,67.65,186.92,66.63Z"/><path class="cls-2" d="M203.68,72.24a3.77,3.77,0,0,1-1.27,3,5.23,5.23,0,0,1-3.57,1.11,14.93,14.93,0,0,1-3-.3,8.85,8.85,0,0,1-2.4-.81l.51-3.06a10.2,10.2,0,0,0,4.56,1.35,1.31,1.31,0,0,0,.94-.29.88.88,0,0,0,.29-.64,1.17,1.17,0,0,0-.23-.74,3.53,3.53,0,0,0-1.09-.7,17.26,17.26,0,0,1-2.12-1.08A7,7,0,0,1,194.82,69a3.79,3.79,0,0,1-.81-1.24,4.14,4.14,0,0,1-.25-1.5,3.38,3.38,0,0,1,1.45-2.93,6.35,6.35,0,0,1,3.78-1,11.7,11.7,0,0,1,2.24.19,10.3,10.3,0,0,1,2.24.77l-.48,3a7.13,7.13,0,0,0-2.06-.83,9.29,9.29,0,0,0-2-.22,1.37,1.37,0,0,0-1,.25.93.93,0,0,0-.26.68,1,1,0,0,0,.42.82,8,8,0,0,0,1.6.83,20.06,20.06,0,0,1,1.82,1,6.14,6.14,0,0,1,1.22,1,3.12,3.12,0,0,1,.68,1.11A3.87,3.87,0,0,1,203.68,72.24Z"/></g></svg>