<svg xmlns="http://www.w3.org/2000/svg" viewBox="0 0 512 128"><defs><style>.cls-1{fill:#ff0;}.cls-2{fill:#323232;}</style></defs><g id="_3_Hot_air_ballons" data-name="3 Hot air ballons"><path class="cls-1" d="M136.07,68a8.4,8.4,0,0,1-.57,3.17,6.74,6.74,0,0,1-1.58,2.4,7,7,0,0,1-2.46,1.54,9,9,0,0,1-3.25.55,8.91,8.91,0,0,1-3.4-.62,7.3,7.3,0,0,1-2.61-1.76,8.19,8.19,0,0,1-1.68-2.74,9.9,9.9,0,0,1-.6-3.55,12.76,12.76,0,0,1,.72-4.18,22,22,0,0,1,1.88-4,29.73,29.73,0,0,1,2.61-3.7,33.22,33.22,0,0,1,2.92-3.15h5.74a35.49,35.49,0,0,0-4.21,4.56,36.25,36.25,0,0,0-3.43,5.27c.35-.21.67-.38,1-.52a7.24,7.24,0,0,1,.82-.32,4.91,4.91,0,0,1,.78-.17,8.12,8.12,0,0,1,.9,0,6.37,6.37,0,0,1,2.61.53,5.84,5.84,0,0,1,2,1.51A7.35,7.35,0,0,1,135.59,65,8.72,8.72,0,0,1,136.07,68Zm-4.52.09a3.37,3.37,0,0,0-.81-2.37,2.79,2.79,0,0,0-2.15-.87,4.44,4.44,0,0,0-3.16,1.34c-.07.33-.12.59-.14.76a5.94,5.94,0,0,0,0,.67,3.76,3.76,0,0,0,.92,2.64,3.08,3.08,0,0,0,2.4,1,2.81,2.81,0,0,0,2.16-.87A3.25,3.25,0,0,0,131.55,68.07Z"/><path class="cls-2" d="M157.05,75.4a9.17,9.17,0,0,1-2.14.24,7.25,7.25,0,0,1-2.64-.47,6.65,6.65,0,0,1-2.09-1.3,5.72,5.72,0,0,1-1.36-2,6.8,6.8,0,0,1-.48-2.6,8.35,8.35,0,0,1,.43-2.75,5.79,5.79,0,0,1,1.32-2.17,6.15,6.15,0,0,1,2.19-1.4,8.59,8.59,0,0,1,3.05-.5,6.93,6.93,0,0,1,2.29.32,8.42,8.42,0,0,1,1.49.67l-.69,3.45-.77-.37a5.1,5.1,0,0,0-.6-.27,2.91,2.91,0,0,0-.63-.15,6.32,6.32,0,0,0-.82,0,3.09,3.09,0,0,0-2.31.82,3,3,0,0,0-.81,2.21,3,3,0,0,0,.84,2.23,3.41,3.41,0,0,0,2.43.8,6.66,6.66,0,0,0,1.56-.18,9.31,9.31,0,0,0,1.59-.57l.27,3.26A10.48,10.48,0,0,1,157.05,75.4Z"/><path class="cls-2" d="M175.49,69a7.58,7.58,0,0,1-.5,2.84,5.7,5.7,0,0,1-1.4,2.08,6.08,6.08,0,0,1-2.18,1.28,9.29,9.29,0,0,1-5.65,0,6.16,6.16,0,0,1-2.18-1.28,6,6,0,0,1-1.42-2.08,7.58,7.58,0,0,1-.5-2.84,7.28,7.28,0,0,1,.49-2.77,5.73,5.73,0,0,1,1.39-2.06,5.8,5.8,0,0,1,2.18-1.29,8.91,8.91,0,0,1,2.87-.44,8.69,8.69,0,0,1,2.82.43,6,6,0,0,1,2.18,1.25,5.58,5.58,0,0,1,1.4,2.07A7.45,7.45,0,0,1,175.49,69Zm-4,0a3,3,0,0,0-.81-2.22,2.94,2.94,0,0,0-2.16-.8,2.78,2.78,0,0,0-2.14.8,3.1,3.1,0,0,0-.74,2.22,3.33,3.33,0,0,0,.72,2.29,2.77,2.77,0,0,0,2.16.81,2.91,2.91,0,0,0,2.19-.79A3.17,3.17,0,0,0,171.5,69Z"/><path class="cls-2" d="M179.36,75.64V54.73h4V75.64Z"/><path class="cls-2" d="M201.11,69a7.58,7.58,0,0,1-.5,2.84,5.7,5.7,0,0,1-1.4,2.08A6.16,6.16,0,0,1,197,75.2a9.29,9.29,0,0,1-5.65,0,6.16,6.16,0,0,1-2.18-1.28,5.88,5.88,0,0,1-1.42-2.08,7.58,7.58,0,0,1-.5-2.84,7.28,7.28,0,0,1,.49-2.77,5.71,5.71,0,0,1,3.57-3.35,8.87,8.87,0,0,1,2.87-.44,8.69,8.69,0,0,1,2.82.43,6.1,6.1,0,0,1,2.18,1.25,5.58,5.58,0,0,1,1.4,2.07A7.45,7.45,0,0,1,201.11,69Zm-4,0a2.78,2.78,0,0,0-3-3,2.77,2.77,0,0,0-2.13.8,3.1,3.1,0,0,0-.74,2.22,3.33,3.33,0,0,0,.72,2.29,2.75,2.75,0,0,0,2.15.81,2.92,2.92,0,0,0,2.2-.79A3.17,3.17,0,0,0,197.12,69Z"/><path class="cls-2" d="M213.92,75.28a5.91,5.91,0,0,1-.26-.69c0-.18-.1-.44-.16-.78a5.87,5.87,0,0,1-4.23,1.83,4.44,4.44,0,0,1-1.79-.36,4.57,4.57,0,0,1-1.44-1,4.42,4.42,0,0,1-.94-1.55,5.8,5.8,0,0,1-.33-2q0-1.23.06-2.28c0-.7.07-1.37.09-2s0-1.28,0-1.92-.07-1.33-.15-2h4c.06.66.09,1.29.1,1.9s0,1.2,0,1.8,0,1.21-.06,1.82,0,1.28,0,2a3.4,3.4,0,0,0,.18,1.23,1.42,1.42,0,0,0,.49.65,1.39,1.39,0,0,0,.61.25,3.59,3.59,0,0,0,.53,0,3.48,3.48,0,0,0,.64-.11,2.19,2.19,0,0,0,.9-.55,3.61,3.61,0,0,0,.8-1.28,6,6,0,0,0,.35-2.25V62.44h4v8.73a14.86,14.86,0,0,0,.18,2.27,7.43,7.43,0,0,0,.48,1.84Z"/><path class="cls-2" d="M231.2,66.13l-.66-.12a4.5,4.5,0,0,0-.54,0,3.06,3.06,0,0,0-2.6,1.17,5.76,5.76,0,0,0-.88,3.49v5h-4V67c0-.49,0-.92,0-1.28s0-.7-.07-1-.1-.63-.17-.93-.16-.65-.28-1h3.78c.06.24.12.45.17.63a3.38,3.38,0,0,1,.11.49l.06.49a5.78,5.78,0,0,1,0,.63A6.83,6.83,0,0,1,227.85,63a3.28,3.28,0,0,1,1.91-.57,2.81,2.81,0,0,1,.7.08,7.82,7.82,0,0,1,.8.29Z"/><path class="cls-2" d="M243.76,58.42a5.47,5.47,0,0,0-1.08-.4,4.35,4.35,0,0,0-1-.11,2.75,2.75,0,0,0-1.23.24,1.7,1.7,0,0,0-.75.77,4.16,4.16,0,0,0-.37,1.39,18.07,18.07,0,0,0-.11,2.13h3.18v2.91h-3.15V75.64h-4V65.29h-2.49V62.44h2.43a17.41,17.41,0,0,1,.33-3.7,6,6,0,0,1,1-2.37,3.71,3.71,0,0,1,1.68-1.26,6.6,6.6,0,0,1,2.32-.38,10.37,10.37,0,0,1,3.57.6Z"/><path class="cls-2" d="M253.72,75.28a5.58,5.58,0,0,1-.25-.69c-.05-.18-.11-.44-.17-.78a5.87,5.87,0,0,1-4.23,1.83,4.39,4.39,0,0,1-1.78-.36,4.57,4.57,0,0,1-1.44-1,4.44,4.44,0,0,1-.95-1.55,5.8,5.8,0,0,1-.33-2q0-1.23.06-2.28c0-.7.07-1.37.09-2s0-1.28,0-1.92-.07-1.33-.15-2h4c.06.66.1,1.29.11,1.9s0,1.2,0,1.8,0,1.21-.06,1.82-.05,1.28-.05,2a3.37,3.37,0,0,0,.19,1.23,1.42,1.42,0,0,0,.49.65,1.34,1.34,0,0,0,.61.25,3.59,3.59,0,0,0,.53,0A3.48,3.48,0,0,0,251,72a2.19,2.19,0,0,0,.9-.55,3.76,3.76,0,0,0,.8-1.28,6.05,6.05,0,0,0,.34-2.25V62.44h4v8.73a14.86,14.86,0,0,0,.18,2.27,7.43,7.43,0,0,0,.48,1.84Z"/><path class="cls-2" d="M262,75.64V54.73h4V75.64Z"/><path class="cls-2" d="M293.23,68.09a8.73,8.73,0,0,1-.52,3.1,6.54,6.54,0,0,1-3.79,3.91,8.06,8.06,0,0,1-3,.54,15.29,15.29,0,0,1-3-.31,14,14,0,0,1-2.82-.85V55.07h4V64a4.58,4.58,0,0,1,1.71-1.15,5.87,5.87,0,0,1,2.18-.39,5.56,5.56,0,0,1,2.15.4A4.77,4.77,0,0,1,291.79,64a5.27,5.27,0,0,1,1.06,1.78A6.62,6.62,0,0,1,293.23,68.09Zm-4,.72a2.62,2.62,0,0,0-.6-1.83,2.16,2.16,0,0,0-1.7-.67,2.79,2.79,0,0,0-1.21.25,2.84,2.84,0,0,0-.91.66,2.78,2.78,0,0,0-.58,1,3.7,3.7,0,0,0-.19,1.15v2.28A3.61,3.61,0,0,0,285,72a6.24,6.24,0,0,0,1.09.08,3.09,3.09,0,0,0,2.31-.85A3.26,3.26,0,0,0,289.24,68.81Z"/><path class="cls-2" d="M306.22,75.64q0-.21,0-.51c0-.16,0-.35-.05-.57s0-.45,0-.69a4.83,4.83,0,0,1-2,1.55,6.29,6.29,0,0,1-2.55.52,4.75,4.75,0,0,1-3.84-1.62,7,7,0,0,1-1.37-4.62,7.09,7.09,0,0,1,2.21-5.59,9.13,9.13,0,0,1,6.28-2c.44,0,.85,0,1.22,0s.73.06,1.09.11.74.11,1.13.19.81.19,1.27.33v8.52c0,.46,0,1,0,1.46s.05,1,.09,1.39.08,1,.12,1.47Zm-.63-9.78a6.06,6.06,0,0,0-.94-.15l-.8,0a3.19,3.19,0,0,0-2.56,1.07,4.38,4.38,0,0,0-.92,3,3,3,0,0,0,.55,1.92,1.93,1.93,0,0,0,1.56.66,2.78,2.78,0,0,0,1.21-.27,3.13,3.13,0,0,0,1-.76,3.73,3.73,0,0,0,.67-1.17,4.53,4.53,0,0,0,.24-1.52Z"/><path class="cls-2" d="M314,75.64V54.73h4V75.64Z"/><path class="cls-2" d="M322.69,75.64V54.73h4V75.64Z"/><path class="cls-2" d="M344.44,69a7.58,7.58,0,0,1-.49,2.84,5.73,5.73,0,0,1-1.41,2.08,6,6,0,0,1-2.18,1.28,9.26,9.26,0,0,1-5.64,0,6.08,6.08,0,0,1-2.18-1.28,5.88,5.88,0,0,1-1.42-2.08,7.38,7.38,0,0,1-.51-2.84,7.48,7.48,0,0,1,.49-2.77,5.71,5.71,0,0,1,3.57-3.35,9,9,0,0,1,2.87-.44,8.61,8.61,0,0,1,2.82.43,5.93,5.93,0,0,1,2.18,1.25A5.6,5.6,0,0,1,344,66.19,7.46,7.46,0,0,1,344.44,69Zm-4,0a3,3,0,0,0-.8-2.22,3,3,0,0,0-2.17-.8,2.8,2.8,0,0,0-2.14.8A3.15,3.15,0,0,0,334.6,69a3.28,3.28,0,0,0,.73,2.29,2.73,2.73,0,0,0,2.15.81,2.93,2.93,0,0,0,2.2-.79A3.2,3.2,0,0,0,340.45,69Z"/><path class="cls-2" d="M361.39,69a7.58,7.58,0,0,1-.49,2.84,5.73,5.73,0,0,1-1.41,2.08,6,6,0,0,1-2.18,1.28,9.26,9.26,0,0,1-5.64,0,6.08,6.08,0,0,1-2.18-1.28,5.88,5.88,0,0,1-1.42-2.08,7.38,7.38,0,0,1-.51-2.84,7.48,7.48,0,0,1,.49-2.77,5.71,5.71,0,0,1,3.57-3.35,9,9,0,0,1,2.87-.44,8.61,8.61,0,0,1,2.82.43,5.93,5.93,0,0,1,2.18,1.25,5.6,5.6,0,0,1,1.41,2.07A7.46,7.46,0,0,1,361.39,69Zm-4,0a3,3,0,0,0-.8-2.22,3,3,0,0,0-2.17-.8,2.8,2.8,0,0,0-2.14.8,3.15,3.15,0,0,0-.74,2.22,3.28,3.28,0,0,0,.73,2.29,2.73,2.73,0,0,0,2.15.81,2.93,2.93,0,0,0,2.2-.79A3.2,3.2,0,0,0,357.4,69Z"/><path class="cls-2" d="M373.75,75.64V68.15a3,3,0,0,0-.19-1.21,1.81,1.81,0,0,0-.47-.66,1.23,1.23,0,0,0-.57-.26c-.2,0-.37,0-.51,0a2.91,2.91,0,0,0-.63.12,2.08,2.08,0,0,0-.91.55,3.73,3.73,0,0,0-.83,1.27,5.81,5.81,0,0,0-.36,2.25v5.47h-4V66.92a15,15,0,0,0-.18-2.28,7.43,7.43,0,0,0-.48-1.84h4a5.91,5.91,0,0,1,.26.69c.05.18.1.44.16.78a6.22,6.22,0,0,1,2.06-1.38,5.92,5.92,0,0,1,2.23-.45,4.41,4.41,0,0,1,1.75.35,4.21,4.21,0,0,1,1.4,1,4.4,4.4,0,0,1,.92,1.55,5.82,5.82,0,0,1,.34,2.06v8.26Z"/><path class="cls-2" d="M392.08,72a3.77,3.77,0,0,1-1.27,3,5.26,5.26,0,0,1-3.57,1.11,15,15,0,0,1-3.05-.3,9.09,9.09,0,0,1-2.4-.81l.51-3.06a10.24,10.24,0,0,0,4.56,1.35,1.32,1.32,0,0,0,.95-.28.9.9,0,0,0,.28-.65,1.13,1.13,0,0,0-.22-.73,3.46,3.46,0,0,0-1.1-.71,17.82,17.82,0,0,1-2.11-1.08,7,7,0,0,1-1.44-1.12,3.82,3.82,0,0,1-.81-1.25,4.14,4.14,0,0,1-.26-1.5A3.37,3.37,0,0,1,383.6,63a6.39,6.39,0,0,1,3.79-1,11.73,11.73,0,0,1,2.24.2,10.39,10.39,0,0,1,2.24.76l-.48,3a7.15,7.15,0,0,0-2.07-.82,9.18,9.18,0,0,0-2-.23,1.35,1.35,0,0,0-1,.26.9.9,0,0,0-.26.67,1,1,0,0,0,.41.83,8.82,8.82,0,0,0,1.6.82,18.67,18.67,0,0,1,1.82,1,6.53,6.53,0,0,1,1.23,1,3.27,3.27,0,0,1,.68,1.11A4.08,4.08,0,0,1,392.08,72Z"/></g></svg>